<svg width="1440" height="330" viewBox="0 0 1440 330" fill="none" xmlns="http://www.w3.org/2000/svg">
<g clip-path="url(#clip0_960_2722)">
<g filter="url(#filter0_f_960_2722)">
<path d="M1479 404.5C1479 390.646 1459.35 376.927 1421.19 364.127C1383.02 351.327 1327.07 339.697 1256.55 329.9C1186.02 320.104 1102.29 312.333 1010.15 307.031C918.001 301.729 819.239 299 719.5 299C619.761 299 520.999 301.729 428.852 307.031C336.705 312.333 252.978 320.104 182.452 329.9C111.926 339.697 55.9819 351.327 17.8135 364.127C-20.355 376.927 -40 390.646 -40 404.5L719.5 404.5H1479Z" fill="url(#paint0_linear_960_2722)" fill-opacity="0.3"/>
</g>
<g filter="url(#filter1_f_960_2722)">
<ellipse cx="720" cy="-72.2353" rx="960" ry="71.7647" fill="url(#paint1_linear_960_2722)" fill-opacity="0.2"/>
</g>
</g>
<defs>
<filter id="filter0_f_960_2722" x="-90" y="249" width="1619" height="205.5" filterUnits="userSpaceOnUse" color-interpolation-filters="sRGB">
<feFlood flood-opacity="0" result="BackgroundImageFix"/>
<feBlend mode="normal" in="SourceGraphic" in2="BackgroundImageFix" result="shape"/>
<feGaussianBlur stdDeviation="25" result="effect1_foregroundBlur_960_2722"/>
</filter>
<filter id="filter1_f_960_2722" x="-490" y="-394" width="2420" height="643.529" filterUnits="userSpaceOnUse" color-interpolation-filters="sRGB">
<feFlood flood-opacity="0" result="BackgroundImageFix"/>
<feBlend mode="normal" in="SourceGraphic" in2="BackgroundImageFix" result="shape"/>
<feGaussianBlur stdDeviation="125" result="effect1_foregroundBlur_960_2722"/>
</filter>
<linearGradient id="paint0_linear_960_2722" x1="719.5" y1="299" x2="719.5" y2="510" gradientUnits="userSpaceOnUse">
<stop stop-color="#0D423E"/>
<stop offset="1" stop-color="#5DDBCF"/>
</linearGradient>
<linearGradient id="paint1_linear_960_2722" x1="720" y1="-144" x2="720" y2="-0.470581" gradientUnits="userSpaceOnUse">
<stop stop-color="#0D423E"/>
<stop offset="1" stop-color="#5DDBCF"/>
</linearGradient>
<clipPath id="clip0_960_2722">
<rect width="1440" height="330" rx="24" fill="white"/>
</clipPath>
</defs>
</svg>
