<svg width="624" height="304" viewBox="0 0 624 304" fill="none" xmlns="http://www.w3.org/2000/svg">
<g clip-path="url(#clip0_960_2562)">
<rect width="624" height="304" rx="24" fill="#0A0E15"/>
<g filter="url(#filter0_f_960_2562)">
<path d="M624 378.5C624 364.646 615.93 350.927 600.25 338.127C584.571 325.327 561.589 313.697 532.617 303.9C503.645 294.104 469.251 286.333 431.397 281.031C393.544 275.729 352.972 273 312 273C271.028 273 230.456 275.729 192.603 281.031C154.749 286.333 120.355 294.104 91.3827 303.9C62.4108 313.697 39.429 325.327 23.7496 338.127C8.07011 350.927 -3.58192e-06 364.646 0 378.5L312 378.5H624Z" fill="url(#paint0_linear_960_2562)" fill-opacity="0.3"/>
</g>
<g filter="url(#filter1_f_960_2562)">
<ellipse cx="310.5" cy="-72.2353" rx="960" ry="71.7647" fill="url(#paint1_linear_960_2562)" fill-opacity="0.2"/>
</g>
</g>
<rect x="0.5" y="0.5" width="623" height="303" rx="23.5" stroke="url(#paint2_linear_960_2562)" stroke-opacity="0.6"/>
<defs>
<filter id="filter0_f_960_2562" x="-50" y="223" width="724" height="205.5" filterUnits="userSpaceOnUse" color-interpolation-filters="sRGB">
<feFlood flood-opacity="0" result="BackgroundImageFix"/>
<feBlend mode="normal" in="SourceGraphic" in2="BackgroundImageFix" result="shape"/>
<feGaussianBlur stdDeviation="25" result="effect1_foregroundBlur_960_2562"/>
</filter>
<filter id="filter1_f_960_2562" x="-899.5" y="-394" width="2420" height="643.529" filterUnits="userSpaceOnUse" color-interpolation-filters="sRGB">
<feFlood flood-opacity="0" result="BackgroundImageFix"/>
<feBlend mode="normal" in="SourceGraphic" in2="BackgroundImageFix" result="shape"/>
<feGaussianBlur stdDeviation="125" result="effect1_foregroundBlur_960_2562"/>
</filter>
<linearGradient id="paint0_linear_960_2562" x1="312" y1="273" x2="312" y2="484" gradientUnits="userSpaceOnUse">
<stop stop-color="#0D423E"/>
<stop offset="1" stop-color="#5DDBCF"/>
</linearGradient>
<linearGradient id="paint1_linear_960_2562" x1="310.5" y1="-144" x2="310.5" y2="-0.470581" gradientUnits="userSpaceOnUse">
<stop stop-color="#0D423E"/>
<stop offset="1" stop-color="#5DDBCF"/>
</linearGradient>
<linearGradient id="paint2_linear_960_2562" x1="312" y1="0" x2="312" y2="304" gradientUnits="userSpaceOnUse">
<stop stop-color="#5AD7CC"/>
<stop offset="1" stop-opacity="0.44"/>
</linearGradient>
<clipPath id="clip0_960_2562">
<rect width="624" height="304" rx="24" fill="white"/>
</clipPath>
</defs>
</svg>
