<svg width="580" height="513" viewBox="0 0 580 513" fill="none" xmlns="http://www.w3.org/2000/svg">
<path d="M5.76433 11V9.48366H12.5456V11H5.76433ZM6.52498 6.58026V5.10369H11.7899V6.58026H6.52498ZM5.89359 2.34943V0.818182H12.3069V2.34943H5.89359ZM18.684 11V9.66761L22.2188 6.20241C22.5569 5.86103 22.8386 5.55776 23.064 5.29261C23.2894 5.02746 23.4584 4.7706 23.5711 4.52202C23.6838 4.27344 23.7402 4.00829 23.7402 3.72656C23.7402 3.40507 23.6672 3.12997 23.5214 2.90128C23.3756 2.66927 23.1751 2.49029 22.9198 2.36435C22.6646 2.2384 22.3746 2.17543 22.0498 2.17543C21.7151 2.17543 21.4217 2.24503 21.1698 2.38423C20.9179 2.52012 20.7224 2.71401 20.5832 2.96591C20.4473 3.2178 20.3794 3.51776 20.3794 3.86577H18.6244C18.6244 3.21946 18.7719 2.65767 19.0669 2.1804C19.3618 1.70312 19.7679 1.33357 20.2849 1.07173C20.8053 0.809896 21.4019 0.678977 22.0747 0.678977C22.7574 0.678977 23.3573 0.806581 23.8744 1.06179C24.3914 1.317 24.7925 1.66667 25.0775 2.1108C25.3659 2.55492 25.51 3.06203 25.51 3.6321C25.51 4.01326 25.4371 4.38778 25.2913 4.75568C25.1455 5.12358 24.8886 5.53125 24.5207 5.97869C24.1561 6.42614 23.644 6.96804 22.9845 7.6044L21.2295 9.3892V9.45881H25.6642V11H18.684ZM27.3967 9.1108V7.64418L31.717 0.818182H32.94V2.90625H32.1942L29.2859 7.51491V7.59446H35.3164V9.1108H27.3967ZM32.2539 11V8.66335L32.2738 8.0071V0.818182H34.0138V11H32.2539Z" fill="#636F80"/>
<path d="M5.5319 126V124.484H12.3132V126H5.5319ZM6.29256 121.58V120.104H11.5575V121.58H6.29256ZM5.66116 117.349V115.818H12.0745V117.349H5.66116ZM18.4516 126V124.668L21.9864 121.202C22.3245 120.861 22.6062 120.558 22.8316 120.293C23.057 120.027 23.226 119.771 23.3387 119.522C23.4514 119.273 23.5077 119.008 23.5077 118.727C23.5077 118.405 23.4348 118.13 23.289 117.901C23.1432 117.669 22.9426 117.49 22.6874 117.364C22.4322 117.238 22.1422 117.175 21.8174 117.175C21.4826 117.175 21.1893 117.245 20.9374 117.384C20.6855 117.52 20.49 117.714 20.3508 117.966C20.2149 118.218 20.1469 118.518 20.1469 118.866H18.392C18.392 118.219 18.5395 117.658 18.8344 117.18C19.1294 116.703 19.5354 116.334 20.0525 116.072C20.5728 115.81 21.1694 115.679 21.8423 115.679C22.525 115.679 23.1249 115.807 23.642 116.062C24.159 116.317 24.5601 116.667 24.8451 117.111C25.1334 117.555 25.2776 118.062 25.2776 118.632C25.2776 119.013 25.2047 119.388 25.0589 119.756C24.913 120.124 24.6562 120.531 24.2883 120.979C23.9237 121.426 23.4116 121.968 22.7521 122.604L20.9971 124.389V124.459H25.4317V126H18.4516ZM31.3304 126.194C30.5118 126.194 29.8091 125.987 29.2225 125.572C28.6391 125.155 28.19 124.553 27.8752 123.768C27.5636 122.979 27.4078 122.029 27.4078 120.919C27.4112 119.809 27.5686 118.864 27.8801 118.085C28.195 117.303 28.6441 116.706 29.2275 116.295C29.8141 115.884 30.5151 115.679 31.3304 115.679C32.1458 115.679 32.8468 115.884 33.4334 116.295C34.0201 116.706 34.4692 117.303 34.7807 118.085C35.0956 118.867 35.253 119.812 35.253 120.919C35.253 122.033 35.0956 122.984 34.7807 123.773C34.4692 124.558 34.0201 125.158 33.4334 125.572C32.8501 125.987 32.1491 126.194 31.3304 126.194ZM31.3304 124.638C31.9668 124.638 32.4689 124.325 32.8368 123.698C33.208 123.068 33.3936 122.142 33.3936 120.919C33.3936 120.11 33.3091 119.431 33.1401 118.881C32.9711 118.33 32.7324 117.916 32.4242 117.638C32.1159 117.356 31.7514 117.215 31.3304 117.215C30.6974 117.215 30.1969 117.53 29.829 118.16C29.4611 118.786 29.2755 119.706 29.2722 120.919C29.2689 121.731 29.3501 122.414 29.5158 122.967C29.6848 123.521 29.9235 123.938 30.2317 124.22C30.54 124.499 30.9062 124.638 31.3304 124.638Z" fill="#636F80"/>
<path d="M7.76042 241V239.484H14.5417V241H7.76042ZM8.52107 236.58V235.104H13.786V236.58H8.52107ZM7.88968 232.349V230.818H14.303V232.349H7.88968ZM24.8215 230.818V241H22.977V232.613H22.9174L20.536 234.134V232.444L23.0665 230.818H24.8215ZM31.5554 241.139C31.0682 241.136 30.5926 241.051 30.1286 240.886C29.6645 240.717 29.2469 240.443 28.8757 240.065C28.5045 239.684 28.2095 239.179 27.9908 238.549C27.772 237.916 27.6643 237.132 27.6676 236.197C27.6676 235.326 27.7604 234.549 27.946 233.866C28.1316 233.183 28.3984 232.606 28.7464 232.136C29.0945 231.662 29.5137 231.3 30.0043 231.052C30.4981 230.803 31.05 230.679 31.6598 230.679C32.2995 230.679 32.8662 230.805 33.3601 231.057C33.8572 231.309 34.2583 231.653 34.5632 232.091C34.8681 232.525 35.0571 233.016 35.13 233.562H33.3153C33.2225 233.171 33.032 232.86 32.7436 232.628C32.4586 232.393 32.0973 232.275 31.6598 232.275C30.9538 232.275 30.4103 232.581 30.0291 233.195C29.6513 233.808 29.4607 234.65 29.4574 235.72H29.527C29.6894 235.429 29.8999 235.178 30.1584 234.969C30.4169 234.761 30.7086 234.6 31.0334 234.487C31.3615 234.371 31.7079 234.313 32.0724 234.313C32.669 234.313 33.2043 234.456 33.6783 234.741C34.1555 235.026 34.5334 235.419 34.8118 235.919C35.0902 236.416 35.2277 236.986 35.2244 237.629C35.2277 238.299 35.0753 238.9 34.767 239.434C34.4588 239.964 34.0296 240.382 33.4794 240.687C32.9292 240.992 32.2879 241.143 31.5554 241.139ZM31.5455 239.648C31.9067 239.648 32.2299 239.56 32.5149 239.384C32.8 239.209 33.0253 238.972 33.1911 238.673C33.3568 238.375 33.438 238.04 33.4347 237.669C33.438 237.304 33.3584 236.975 33.196 236.68C33.0369 236.385 32.8165 236.151 32.5348 235.979C32.2531 235.806 31.9316 235.72 31.5703 235.72C31.3018 235.72 31.0516 235.772 30.8196 235.874C30.5876 235.977 30.3854 236.12 30.2131 236.302C30.0407 236.481 29.9048 236.69 29.8054 236.928C29.7093 237.164 29.6596 237.415 29.6562 237.684C29.6596 238.039 29.7424 238.365 29.9048 238.663C30.0672 238.962 30.291 239.2 30.576 239.379C30.861 239.558 31.1842 239.648 31.5455 239.648Z" fill="#636F80"/>
<path d="M8.14323 355V353.484H14.9245V355H8.14323ZM8.90388 350.58V349.104H14.1688V350.58H8.90388ZM8.27249 346.349V344.818H14.6858V346.349H8.27249ZM25.2043 344.818V355H23.3598V346.613H23.3002L20.9188 348.134V346.444L23.4493 344.818H25.2043ZM28.2095 355V353.668L31.7443 350.202C32.0824 349.861 32.3641 349.558 32.5895 349.293C32.8149 349.027 32.9839 348.771 33.0966 348.522C33.2093 348.273 33.2656 348.008 33.2656 347.727C33.2656 347.405 33.1927 347.13 33.0469 346.901C32.901 346.669 32.7005 346.49 32.4453 346.364C32.1901 346.238 31.9001 346.175 31.5753 346.175C31.2405 346.175 30.9472 346.245 30.6953 346.384C30.4434 346.52 30.2479 346.714 30.1087 346.966C29.9728 347.218 29.9048 347.518 29.9048 347.866H28.1499C28.1499 347.219 28.2973 346.658 28.5923 346.18C28.8873 345.703 29.2933 345.334 29.8104 345.072C30.3307 344.81 30.9273 344.679 31.6001 344.679C32.2829 344.679 32.8828 344.807 33.3999 345.062C33.9169 345.317 34.3179 345.667 34.603 346.111C34.8913 346.555 35.0355 347.062 35.0355 347.632C35.0355 348.013 34.9626 348.388 34.8168 348.756C34.6709 349.124 34.4141 349.531 34.0462 349.979C33.6816 350.426 33.1695 350.968 32.5099 351.604L30.755 353.389V353.459H35.1896V355H28.2095Z" fill="#636F80"/>
<path d="M14.948 469V467.484H21.7292V469H14.948ZM15.7087 464.58V463.104H20.9736V464.58H15.7087ZM15.0773 460.349V458.818H21.4906V460.349H15.0773ZM31.487 469.139C30.7479 469.139 30.0917 469.015 29.5183 468.766C28.9482 468.518 28.5008 468.178 28.176 467.747C27.8545 467.313 27.6954 466.821 27.6987 466.271C27.6954 465.843 27.7882 465.45 27.9771 465.092C28.166 464.734 28.4212 464.436 28.7427 464.197C29.0675 463.955 29.4288 463.801 29.8265 463.735V463.665C29.3029 463.549 28.8786 463.283 28.5538 462.865C28.2323 462.444 28.0732 461.959 28.0765 461.408C28.0732 460.885 28.219 460.417 28.514 460.006C28.809 459.595 29.2134 459.272 29.7271 459.037C30.2408 458.798 30.8275 458.679 31.487 458.679C32.14 458.679 32.7217 458.798 33.2321 459.037C33.7458 459.272 34.1502 459.595 34.4451 460.006C34.7434 460.417 34.8926 460.885 34.8926 461.408C34.8926 461.959 34.7285 462.444 34.4004 462.865C34.0756 463.283 33.6563 463.549 33.1426 463.665V463.735C33.5403 463.801 33.8983 463.955 34.2164 464.197C34.5379 464.436 34.7931 464.734 34.9821 465.092C35.1743 465.45 35.2704 465.843 35.2704 466.271C35.2704 466.821 35.108 467.313 34.7832 467.747C34.4584 468.178 34.0109 468.518 33.4409 468.766C32.8741 469.015 32.2228 469.139 31.487 469.139ZM31.487 467.717C31.8682 467.717 32.1996 467.653 32.4814 467.523C32.7631 467.391 32.9818 467.205 33.1376 466.967C33.2934 466.728 33.3729 466.453 33.3762 466.141C33.3729 465.817 33.2884 465.53 33.1227 465.281C32.9603 465.029 32.7366 464.832 32.4515 464.69C32.1698 464.547 31.8483 464.476 31.487 464.476C31.1225 464.476 30.7976 464.547 30.5126 464.69C30.2276 464.832 30.0022 465.029 29.8365 465.281C29.6741 465.53 29.5945 465.817 29.5978 466.141C29.5945 466.453 29.6708 466.728 29.8265 466.967C29.9823 467.202 30.2011 467.386 30.4828 467.518C30.7678 467.651 31.1026 467.717 31.487 467.717ZM31.487 463.079C31.7986 463.079 32.0737 463.016 32.3123 462.89C32.5543 462.764 32.7449 462.588 32.8841 462.363C33.0233 462.138 33.0945 461.877 33.0978 461.582C33.0945 461.291 33.0249 461.036 32.889 460.817C32.7531 460.595 32.5642 460.424 32.3223 460.305C32.0803 460.182 31.8019 460.121 31.487 460.121C31.1655 460.121 30.8822 460.182 30.6369 460.305C30.3949 460.424 30.206 460.595 30.0701 460.817C29.9376 461.036 29.8729 461.291 29.8762 461.582C29.8729 461.877 29.9392 462.138 30.0751 462.363C30.2143 462.585 30.4049 462.761 30.6468 462.89C30.8921 463.016 31.1722 463.079 31.487 463.079Z" fill="#636F80"/>
<g opacity="0.1">
<path d="M46 3.84961V465.927" stroke="#E2E8F0" stroke-width="0.486583"/>
<path d="M132.681 3.84961V465.927" stroke="#E2E8F0" stroke-width="0.486583"/>
<path d="M218.632 3.84961V465.927" stroke="#E2E8F0" stroke-width="0.486583"/>
<path d="M305.274 3.84961V465.927" stroke="#E2E8F0" stroke-width="0.486583"/>
<path d="M391.964 3.84961V465.927" stroke="#E2E8F0" stroke-width="0.486583"/>
<path d="M477.833 3.84961V465.927" stroke="#E2E8F0" stroke-width="0.486583"/>
<path d="M563.997 3.84961V465.927" stroke="#E2E8F0" stroke-width="0.486583"/>
<path d="M46.2554 467H563.971" stroke="#E2E8F0" stroke-width="0.486583"/>
<path d="M46.5577 351.227H564" stroke="#E2E8F0" stroke-width="0.486583"/>
<path d="M46.5577 235.453H564" stroke="#E2E8F0" stroke-width="0.486583"/>
<path d="M46.5577 119.68H564" stroke="#E2E8F0" stroke-width="0.486583"/>
<path d="M46.5548 3H563.997" stroke="#E2E8F0" stroke-width="0.486583"/>
<path d="M46.3561 466.717H391.603" stroke="#E2E8F0" stroke-width="0.486583"/>
<path d="M46 3.96289V466.08" stroke="#E2E8F0" stroke-width="0.486583"/>
</g>
<g filter="url(#filter0_dd_4013_430)">
<g opacity="0.77" filter="url(#filter1_f_4013_430)">
<path d="M48.041 192.981C50.4077 195.97 60.4525 189.288 72.7412 193.079C82.4173 196.063 90.8345 205.648 103.222 208.544C126.735 214.041 145.924 219.69 156.827 232.82C167.731 245.949 184.097 290.467 203.6 290.467C223.103 290.467 233.03 267.311 240.388 252.058C247.435 237.448 261.009 202.357 282.956 198.488C307.181 194.218 327.101 168.177 356.006 163.8C371.412 161.467 383.754 166.008 397.523 173.063C411.293 180.118 408.598 183.165 439.567 188.604C465.123 193.092 471.808 208.544 496.85 210.403C521.893 212.262 533.475 154.08 559.915 158.937" stroke="url(#paint0_linear_4013_430)" stroke-width="6" stroke-linecap="square" stroke-linejoin="round"/>
</g>
<path d="M48.041 192.981C50.4077 195.97 60.4525 189.288 72.7412 193.079C82.4173 196.063 90.8345 205.648 103.222 208.544C126.735 214.041 145.924 219.69 156.827 232.82C167.731 245.949 184.097 290.467 203.6 290.467C223.103 290.467 233.03 267.311 240.388 252.058C247.435 237.448 261.009 202.357 282.956 198.488C307.181 194.218 327.101 168.177 356.006 163.8C371.412 161.467 383.754 166.008 397.523 173.063C411.293 180.118 408.598 183.165 439.567 188.604C465.123 193.092 471.808 208.544 496.85 210.403C521.893 212.262 533.475 154.08 559.915 158.937" stroke="url(#paint1_linear_4013_430)" stroke-width="4" stroke-linecap="square" stroke-linejoin="round"/>
<path d="M48.041 192.981C50.4077 195.97 60.4525 189.288 72.7412 193.079C82.4173 196.063 90.8345 205.648 103.222 208.544C126.735 214.041 145.924 219.69 156.827 232.82C167.731 245.949 184.097 290.467 203.6 290.467C223.103 290.467 233.03 267.311 240.388 252.058C247.435 237.448 261.009 202.357 282.956 198.488C307.181 194.218 327.101 168.177 356.006 163.8C371.412 161.467 383.754 166.008 397.523 173.063C411.293 180.118 408.598 183.165 439.567 188.604C465.123 193.092 471.808 208.544 496.85 210.403C521.893 212.262 533.475 154.08 559.915 158.937" stroke="#5DDBCF" stroke-width="4" stroke-linecap="square" stroke-linejoin="round"/>
</g>
<rect x="10" y="487" width="34" height="4" fill="black"/>
<path d="M50.963 477L50.963 477.806" stroke="black" stroke-width="1.45975" stroke-linecap="round"/>
<path d="M41.8037 480.432V490.614H39.9592V482.227H39.8996L37.5182 483.748V482.058L40.0487 480.432H41.8037ZM46.2159 490.614H44.2471L47.8317 480.432H50.1086L53.6981 490.614H51.7294L49.0099 482.521H48.9304L46.2159 490.614ZM46.2805 486.622H51.6498V488.104H46.2805V486.622ZM55.4592 480.432H57.7163L60.7391 487.81H60.8584L63.8811 480.432H66.1382V490.614H64.3683V483.619H64.2739L61.4599 490.584H60.1375L57.3236 483.604H57.2291V490.614H55.4592V480.432Z" fill="#636F80"/>
<path d="M149.103 477L149.103 477.806" stroke="black" stroke-width="1.45975" stroke-linecap="round"/>
<path d="M147.478 490.614V489.281L151.013 485.816C151.351 485.475 151.633 485.172 151.858 484.906C152.083 484.641 152.252 484.384 152.365 484.136C152.478 483.887 152.534 483.622 152.534 483.34C152.534 483.019 152.461 482.744 152.315 482.515C152.17 482.283 151.969 482.104 151.714 481.978C151.459 481.852 151.169 481.789 150.844 481.789C150.509 481.789 150.216 481.859 149.964 481.998C149.712 482.134 149.516 482.328 149.377 482.58C149.241 482.832 149.173 483.132 149.173 483.48H147.418C147.418 482.833 147.566 482.271 147.861 481.794C148.156 481.317 148.562 480.947 149.079 480.686C149.599 480.424 150.196 480.293 150.869 480.293C151.551 480.293 152.151 480.42 152.668 480.676C153.185 480.931 153.586 481.28 153.871 481.725C154.16 482.169 154.304 482.676 154.304 483.246C154.304 483.627 154.231 484.002 154.085 484.369C153.939 484.737 153.683 485.145 153.315 485.592C152.95 486.04 152.438 486.582 151.778 487.218L150.023 489.003V489.073H154.458V490.614H147.478ZM158 490.614H156.032L159.616 480.432H161.893L165.482 490.614H163.514L160.794 482.52H160.715L158 490.614ZM158.065 486.622H163.434V488.103H158.065V486.622ZM167.244 480.432H169.501L172.523 487.81H172.643L175.665 480.432H177.923V490.614H176.153V483.619H176.058L173.244 490.584H171.922L169.108 483.604H169.013V490.614H167.244V480.432Z" fill="#636F80"/>
<path d="M260.186 477L260.186 477.806" stroke="black" stroke-width="1.45975" stroke-linecap="round"/>
<path d="M261.72 490.753C261.004 490.753 260.368 490.63 259.811 490.385C259.258 490.14 258.82 489.798 258.499 489.361C258.177 488.923 258.006 488.418 257.987 487.844H259.856C259.872 488.12 259.964 488.36 260.129 488.565C260.295 488.768 260.515 488.925 260.79 489.038C261.066 489.15 261.374 489.207 261.715 489.207C262.08 489.207 262.403 489.144 262.685 489.018C262.966 488.889 263.187 488.71 263.346 488.481C263.505 488.252 263.583 487.989 263.58 487.69C263.583 487.382 263.503 487.11 263.341 486.875C263.179 486.64 262.943 486.456 262.635 486.323C262.33 486.191 261.962 486.124 261.531 486.124H260.631V484.702H261.531C261.886 484.702 262.196 484.641 262.461 484.518C262.729 484.396 262.94 484.223 263.092 484.001C263.245 483.776 263.319 483.516 263.316 483.221C263.319 482.933 263.255 482.682 263.122 482.47C262.993 482.255 262.809 482.087 262.57 481.968C262.335 481.849 262.058 481.789 261.74 481.789C261.429 481.789 261.14 481.845 260.875 481.958C260.61 482.071 260.396 482.232 260.234 482.44C260.071 482.646 259.985 482.891 259.975 483.176H258.2C258.214 482.606 258.378 482.106 258.692 481.675C259.011 481.241 259.435 480.902 259.965 480.661C260.496 480.415 261.09 480.293 261.75 480.293C262.429 480.293 263.019 480.42 263.52 480.675C264.024 480.927 264.413 481.267 264.688 481.695C264.963 482.122 265.101 482.594 265.101 483.112C265.104 483.685 264.935 484.165 264.594 484.553C264.256 484.941 263.812 485.195 263.261 485.314V485.393C263.977 485.493 264.526 485.758 264.907 486.189C265.291 486.616 265.482 487.148 265.479 487.785C265.479 488.355 265.316 488.865 264.991 489.316C264.67 489.764 264.226 490.115 263.659 490.37C263.096 490.625 262.449 490.753 261.72 490.753ZM269.012 490.614H267.043L270.628 480.432H272.905L276.494 490.614H274.526L271.806 482.52H271.727L269.012 490.614ZM269.077 486.621H274.446V488.103H269.077V486.621ZM278.255 480.432H280.513L283.535 487.81H283.655L286.677 480.432H288.934V490.614H287.165V483.619H287.07L284.256 490.584H282.934L280.12 483.604H280.025V490.614H278.255V480.432Z" fill="#636F80"/>
<path d="M370.941 477L370.941 477.806" stroke="black" stroke-width="1.45975" stroke-linecap="round"/>
<path d="M368.58 488.724V487.258L372.9 480.432H374.123V482.52H373.377L370.469 487.129V487.208H376.499V488.724H368.58ZM373.437 490.614V488.277L373.457 487.621V480.432H375.197V490.614H373.437ZM379.915 490.614H377.946L381.531 480.432H383.808L387.397 490.614H385.428L382.709 482.52H382.629L379.915 490.614ZM379.979 486.621H385.349V488.103H379.979V486.621ZM389.158 480.432H391.415L394.438 487.81H394.557L397.58 480.432H399.837V490.614H398.067V483.619H397.973L395.159 490.584H393.836L391.022 483.604H390.928V490.614H389.158V480.432Z" fill="#636F80"/>
<path d="M481.87 477L481.87 477.806" stroke="black" stroke-width="1.45975" stroke-linecap="round"/>
<path d="M483.336 490.753C482.673 490.753 482.08 490.629 481.556 490.38C481.032 490.128 480.616 489.783 480.308 489.346C480.003 488.908 479.841 488.408 479.821 487.844H481.611C481.644 488.262 481.824 488.603 482.152 488.869C482.481 489.13 482.875 489.261 483.336 489.261C483.697 489.261 484.018 489.179 484.3 489.013C484.582 488.847 484.804 488.617 484.966 488.322C485.129 488.027 485.208 487.69 485.205 487.313C485.208 486.928 485.127 486.587 484.961 486.288C484.796 485.99 484.569 485.756 484.28 485.587C483.992 485.415 483.66 485.329 483.286 485.329C482.981 485.326 482.681 485.382 482.386 485.498C482.091 485.614 481.857 485.766 481.685 485.955L480.02 485.682L480.552 480.432H486.458V481.973H482.078L481.785 484.673H481.844C482.033 484.451 482.3 484.267 482.645 484.121C482.989 483.972 483.367 483.897 483.778 483.897C484.395 483.897 484.945 484.043 485.429 484.335C485.913 484.623 486.294 485.021 486.572 485.528C486.851 486.035 486.99 486.615 486.99 487.268C486.99 487.941 486.834 488.54 486.522 489.067C486.214 489.591 485.785 490.004 485.235 490.305C484.688 490.604 484.055 490.753 483.336 490.753ZM490.482 490.614H488.513L492.098 480.432H494.375L497.964 490.614H495.996L493.276 482.52H493.197L490.482 490.614ZM490.547 486.621H495.916V488.103H490.547V486.621ZM499.726 480.432H501.983L505.005 487.81H505.125L508.147 480.432H510.405V490.614H508.635V483.619H508.54L505.726 490.584H504.404L501.59 483.604H501.495V490.614H499.726V480.432Z" fill="#636F80"/>
<path d="M578 477L578 477.806" stroke="black" stroke-width="1.45975" stroke-linecap="round"/>
<defs>
<filter id="filter0_dd_4013_430" x="27.8267" y="137.647" width="551.581" height="169.82" filterUnits="userSpaceOnUse" color-interpolation-filters="sRGB">
<feFlood flood-opacity="0" result="BackgroundImageFix"/>
<feColorMatrix in="SourceAlpha" type="matrix" values="0 0 0 0 0 0 0 0 0 0 0 0 0 0 0 0 0 0 127 0" result="hardAlpha"/>
<feOffset dy="4"/>
<feGaussianBlur stdDeviation="4.5"/>
<feComposite in2="hardAlpha" operator="out"/>
<feColorMatrix type="matrix" values="0 0 0 0 0.0509804 0 0 0 0 0.0666667 0 0 0 0 0.0941176 0 0 0 1 0"/>
<feBlend mode="normal" in2="BackgroundImageFix" result="effect1_dropShadow_4013_430"/>
<feColorMatrix in="SourceAlpha" type="matrix" values="0 0 0 0 0 0 0 0 0 0 0 0 0 0 0 0 0 0 127 0" result="hardAlpha"/>
<feOffset dy="-2"/>
<feGaussianBlur stdDeviation="8"/>
<feComposite in2="hardAlpha" operator="out"/>
<feColorMatrix type="matrix" values="0 0 0 0 0.0509804 0 0 0 0 0.0666667 0 0 0 0 0.0941176 0 0 0 1 0"/>
<feBlend mode="normal" in2="effect1_dropShadow_4013_430" result="effect2_dropShadow_4013_430"/>
<feBlend mode="normal" in="SourceGraphic" in2="effect2_dropShadow_4013_430" result="shape"/>
</filter>
<filter id="filter1_f_4013_430" x="38.9608" y="150.781" width="529.312" height="147.551" filterUnits="userSpaceOnUse" color-interpolation-filters="sRGB">
<feFlood flood-opacity="0" result="BackgroundImageFix"/>
<feBlend mode="normal" in="SourceGraphic" in2="BackgroundImageFix" result="shape"/>
<feGaussianBlur stdDeviation="2.43292" result="effect1_foregroundBlur_4013_430"/>
</filter>
<linearGradient id="paint0_linear_4013_430" x1="559.915" y1="290.467" x2="48.041" y2="290.467" gradientUnits="userSpaceOnUse">
<stop stop-color="#06D7F6"/>
<stop offset="0.505208" stop-color="#4807EA"/>
<stop offset="1" stop-color="#FD4895"/>
</linearGradient>
<linearGradient id="paint1_linear_4013_430" x1="559.915" y1="290.467" x2="48.041" y2="290.467" gradientUnits="userSpaceOnUse">
<stop stop-color="#06D7F6"/>
<stop offset="0.505208" stop-color="#4807EA"/>
<stop offset="1" stop-color="#FD4895"/>
</linearGradient>
</defs>
</svg>
