<svg width="250" height="45" viewBox="0 0 250 45" fill="none" xmlns="http://www.w3.org/2000/svg">
<g filter="url(#filter0_d_960_2536)">
<path d="M70.992 9.8H75.384V35H70.992V23.696H60.552V35H56.16V9.8H60.552V19.304H70.992V9.8ZM87.3534 35.468C85.6974 35.468 84.1854 35.042 82.8174 34.19C81.4614 33.338 80.3754 32.192 79.5594 30.752C78.7554 29.312 78.3534 27.722 78.3534 25.982C78.3534 24.674 78.5874 23.45 79.0554 22.31C79.5234 21.158 80.1654 20.15 80.9814 19.286C81.8094 18.41 82.7694 17.726 83.8614 17.234C84.9534 16.742 86.1174 16.496 87.3534 16.496C88.7574 16.496 90.0414 16.796 91.2054 17.396C92.3814 17.984 93.3774 18.794 94.1934 19.826C95.0094 20.858 95.6034 22.034 95.9754 23.354C96.3474 24.674 96.4314 26.054 96.2274 27.494H83.0694C83.2374 28.166 83.5134 28.772 83.8974 29.312C84.2814 29.84 84.7674 30.266 85.3554 30.59C85.9434 30.902 86.6094 31.064 87.3534 31.076C88.1214 31.088 88.8174 30.908 89.4414 30.536C90.0774 30.152 90.6054 29.636 91.0254 28.988L95.5074 30.032C94.7754 31.628 93.6834 32.936 92.2314 33.956C90.7794 34.964 89.1534 35.468 87.3534 35.468ZM82.9254 24.2H91.7814C91.6494 23.48 91.3674 22.832 90.9354 22.256C90.5154 21.668 89.9934 21.2 89.3694 20.852C88.7454 20.504 88.0734 20.33 87.3534 20.33C86.6334 20.33 85.9674 20.504 85.3554 20.852C84.7434 21.188 84.2214 21.65 83.7894 22.238C83.3694 22.814 83.0814 23.468 82.9254 24.2ZM112.798 17H117.19V35H112.798L112.6 32.768C112.108 33.572 111.454 34.226 110.638 34.73C109.834 35.222 108.88 35.468 107.776 35.468C106.444 35.468 105.196 35.216 104.032 34.712C102.868 34.208 101.842 33.512 100.954 32.624C100.078 31.736 99.3884 30.71 98.8844 29.546C98.3924 28.382 98.1464 27.134 98.1464 25.802C98.1464 24.518 98.3804 23.312 98.8484 22.184C99.3284 21.056 99.9944 20.066 100.846 19.214C101.698 18.362 102.682 17.696 103.798 17.216C104.914 16.736 106.114 16.496 107.398 16.496C108.586 16.496 109.648 16.76 110.584 17.288C111.532 17.816 112.336 18.488 112.996 19.304L112.798 17ZM107.668 31.238C108.604 31.238 109.432 31.004 110.152 30.536C110.872 30.068 111.436 29.438 111.844 28.646C112.252 27.842 112.456 26.96 112.456 26C112.456 25.028 112.252 24.146 111.844 23.354C111.436 22.55 110.866 21.914 110.134 21.446C109.414 20.978 108.592 20.744 107.668 20.744C106.744 20.744 105.898 20.984 105.13 21.464C104.374 21.932 103.768 22.562 103.312 23.354C102.868 24.146 102.646 25.028 102.646 26C102.646 26.972 102.874 27.854 103.33 28.646C103.786 29.438 104.392 30.068 105.148 30.536C105.916 31.004 106.756 31.238 107.668 31.238ZM120.795 35L120.777 17H125.169L125.187 18.602C125.799 17.954 126.531 17.444 127.383 17.072C128.235 16.688 129.153 16.496 130.137 16.496C130.797 16.496 131.457 16.592 132.117 16.784L130.389 21.212C129.933 21.032 129.477 20.942 129.021 20.942C128.313 20.942 127.665 21.116 127.077 21.464C126.501 21.8 126.039 22.262 125.691 22.85C125.355 23.426 125.187 24.068 125.187 24.776V35H120.795ZM144.277 21.392H140.785V35H136.393V21.392H133.729V17H136.393V11.348H140.785V17H144.277V21.392ZM146.091 19.196L147.207 9.8H151.599L149.025 19.196H146.091ZM160.154 35.324C159.218 35.264 158.312 35.078 157.436 34.766C156.572 34.442 155.804 34.004 155.132 33.452C154.46 32.9 153.944 32.24 153.584 31.472L157.292 29.888C157.436 30.128 157.67 30.386 157.994 30.662C158.318 30.926 158.702 31.148 159.146 31.328C159.602 31.508 160.1 31.598 160.64 31.598C161.096 31.598 161.528 31.538 161.936 31.418C162.356 31.286 162.692 31.088 162.944 30.824C163.208 30.56 163.34 30.218 163.34 29.798C163.34 29.354 163.184 29.012 162.872 28.772C162.572 28.52 162.188 28.334 161.72 28.214C161.264 28.082 160.82 27.962 160.388 27.854C159.248 27.626 158.186 27.272 157.202 26.792C156.23 26.312 155.444 25.694 154.844 24.938C154.256 24.17 153.962 23.246 153.962 22.166C153.962 20.978 154.274 19.952 154.898 19.088C155.534 18.224 156.356 17.558 157.364 17.09C158.384 16.622 159.482 16.388 160.658 16.388C162.086 16.388 163.394 16.688 164.582 17.288C165.782 17.876 166.73 18.71 167.426 19.79L163.952 21.842C163.784 21.554 163.55 21.29 163.25 21.05C162.95 20.798 162.608 20.594 162.224 20.438C161.84 20.27 161.438 20.174 161.018 20.15C160.478 20.126 159.986 20.174 159.542 20.294C159.098 20.414 158.738 20.618 158.462 20.906C158.198 21.194 158.066 21.578 158.066 22.058C158.066 22.514 158.246 22.856 158.606 23.084C158.966 23.3 159.398 23.468 159.902 23.588C160.418 23.708 160.91 23.84 161.378 23.984C162.434 24.332 163.424 24.758 164.348 25.262C165.284 25.766 166.034 26.384 166.598 27.116C167.162 27.848 167.432 28.724 167.408 29.744C167.408 30.908 167.06 31.928 166.364 32.804C165.668 33.668 164.768 34.328 163.664 34.784C162.572 35.24 161.402 35.42 160.154 35.324ZM179.137 35V9.8H183.529V30.608H194.023V35H179.137ZM210.076 17H214.468V35H210.076L209.878 32.768C209.386 33.572 208.732 34.226 207.916 34.73C207.112 35.222 206.158 35.468 205.054 35.468C203.722 35.468 202.474 35.216 201.31 34.712C200.146 34.208 199.12 33.512 198.232 32.624C197.356 31.736 196.666 30.71 196.162 29.546C195.67 28.382 195.424 27.134 195.424 25.802C195.424 24.518 195.658 23.312 196.126 22.184C196.606 21.056 197.272 20.066 198.124 19.214C198.976 18.362 199.96 17.696 201.076 17.216C202.192 16.736 203.392 16.496 204.676 16.496C205.864 16.496 206.926 16.76 207.862 17.288C208.81 17.816 209.614 18.488 210.274 19.304L210.076 17ZM204.946 31.238C205.882 31.238 206.71 31.004 207.43 30.536C208.15 30.068 208.714 29.438 209.122 28.646C209.53 27.842 209.734 26.96 209.734 26C209.734 25.028 209.53 24.146 209.122 23.354C208.714 22.55 208.144 21.914 207.412 21.446C206.692 20.978 205.87 20.744 204.946 20.744C204.022 20.744 203.176 20.984 202.408 21.464C201.652 21.932 201.046 22.562 200.59 23.354C200.146 24.146 199.924 25.028 199.924 26C199.924 26.972 200.152 27.854 200.608 28.646C201.064 29.438 201.67 30.068 202.426 30.536C203.194 31.004 204.034 31.238 204.946 31.238ZM226.534 35H222.178L216.166 17H220.468L224.374 28.646L228.262 17H232.6L236.488 28.646L240.394 17H244.696L238.684 35H234.328L230.422 23.3L226.534 35Z" fill="#5DDBCF"/>
</g>
<path d="M19.4461 22.2644C19.4461 27.1248 19.403 31.9852 19.4763 36.8444C19.495 38.0918 18.357 39.0247 17.1224 38.1814C16.5179 37.768 15.8657 37.4174 15.2135 37.0785C14.7056 36.8141 14.5076 36.4483 14.5111 35.8706C14.5321 32.4044 14.5251 28.9394 14.524 25.4732C14.524 24.4005 14.4063 24.2805 13.3231 24.2782C12.3552 24.2759 11.3874 24.3003 10.4207 24.2864C9.87323 24.2782 9.6368 24.5403 9.6368 25.0562C9.6368 26.6438 9.64145 28.2313 9.64495 29.8188C9.64728 30.8635 9.66125 31.9083 9.64611 32.953C9.63796 33.5109 9.34678 33.6635 8.85876 33.3886C8.08423 32.9519 7.32367 32.4871 6.54214 32.062C5.46128 31.4738 4.99423 30.5817 5.00005 29.3552C5.01985 24.7278 5.00588 20.1004 5.00937 15.4729C5.00937 15.0676 4.99539 14.6518 5.07809 14.2605C5.22251 13.5721 5.6092 13.0166 6.22301 12.6497C7.06976 12.1442 7.92 11.6433 8.77956 11.1577C9.4155 10.7989 9.64262 10.9399 9.64378 11.6899C9.64495 14.1673 9.6368 16.6446 9.63447 19.1208C9.63447 20.1143 9.7521 20.232 10.7293 20.232C11.6191 20.232 12.5102 20.232 13.4 20.232C14.3772 20.232 14.5263 20.0794 14.5274 19.0766C14.5274 15.6302 14.5414 12.1838 14.5123 8.73738C14.5065 8.09212 14.7091 7.68098 15.2787 7.38747C15.9659 7.03339 16.617 6.61177 17.2983 6.24371C18.4164 5.63923 19.4437 6.24488 19.4449 7.51326C19.4507 12.4319 19.4472 17.3493 19.4472 22.2679L19.4461 22.2644Z" fill="#5DDBCF"/>
<path d="M26.3303 19.3072C26.3303 22.7548 26.3303 26.2023 26.3303 29.6511C26.3303 29.8642 26.321 30.0797 26.3501 30.2893C26.4154 30.7564 26.6984 30.9486 27.1328 30.7529C28.2789 30.2346 29.4145 29.693 30.5373 29.1269C30.9764 28.9056 31.207 28.5259 31.1919 27.9902C31.1651 27.0421 31.1744 26.0917 31.1884 25.1436C31.1988 24.418 31.3142 24.3004 32.0235 24.2771C32.9902 24.2456 33.9557 24.22 34.9224 24.2153C35.4046 24.213 35.8927 24.2759 35.8927 24.9328C35.8927 26.5191 35.9148 28.1078 35.8659 29.693C35.8263 30.9952 34.9935 31.7231 33.915 32.3288C30.5804 34.2016 27.2807 36.1351 23.9659 38.0429C23.7481 38.1687 23.5292 38.2968 23.2986 38.3923C22.4017 38.7662 21.4758 38.1966 21.4175 37.2287C21.3908 36.785 21.4094 36.3377 21.4094 35.8928C21.4106 32.154 21.4141 28.4165 21.4141 24.6777C21.4141 19.0067 21.449 13.3357 21.3803 7.66585C21.3651 6.43008 22.5054 5.49831 23.6841 6.29731C24.2432 6.67584 24.8407 7.00545 25.444 7.31061C26.0904 7.6379 26.3466 8.11892 26.342 8.84804C26.3175 12.334 26.3315 15.8212 26.3315 19.3072H26.3292H26.3303Z" fill="#5DDBCF"/>
<path d="M39.5725 13.6974C39.552 13.6101 39.5319 13.5238 39.5119 13.4382C39.4599 13.2147 39.4089 12.9955 39.3534 12.7746L39.3533 12.774C38.9325 11.0886 37.9514 9.92926 36.351 9.16896C35.7674 8.89187 35.2196 8.55747 34.6947 8.22291C34.5601 8.13707 34.4276 8.05167 34.2963 7.96708C33.9084 7.71703 33.5314 7.47405 33.1417 7.24772L33.1415 7.24758C31.7101 6.41526 30.2722 5.58664 28.8334 4.75749C26.8895 3.63731 24.9439 2.51615 23.0106 1.38358L23.0104 1.3835C21.9897 0.785105 21.0043 0.499737 20.0357 0.5C19.0671 0.500263 18.0808 0.786227 17.0584 1.38382C13.4415 3.4985 9.81281 5.59391 6.18585 7.68832C5.19685 8.25943 4.20797 8.83046 3.2195 9.40179C1.39592 10.456 0.591603 12.0923 0.531633 14.1732L39.5725 13.6974ZM39.5725 13.6974V30.6074C39.569 30.6141 39.5656 30.6207 39.5624 30.6269C39.5349 30.6808 39.4827 30.7878 39.4666 30.9225L39.4665 30.9232C39.2548 32.7073 38.4066 34.0458 36.8631 34.9418C34.722 36.1845 32.5763 37.4252 30.4302 38.6661C27.9769 40.0847 25.5231 41.5036 23.075 42.9261L23.0749 42.9261C22.0374 43.5293 21.0322 43.8244 20.0424 43.8287C19.0532 43.8331 18.0454 43.5472 17.0016 42.9362C14.6247 41.5443 12.2239 40.1569 9.82463 38.7703C7.59781 37.4834 5.37222 36.1972 3.168 34.9088L2.91568 35.3405L3.16797 34.9088C2.70035 34.6355 2.26044 34.2473 1.86441 33.8213C0.827197 32.7036 0.515488 31.2977 0.514367 29.7122L0.514367 29.712C0.511455 27.1189 0.512588 24.5259 0.51372 21.9325C0.513946 21.4138 0.514173 20.8951 0.514367 20.3763V20.3762C0.514367 19.7633 0.510752 19.1529 0.507146 18.5443C0.498483 17.0818 0.489877 15.629 0.531631 14.1733L39.5725 13.6974Z" stroke="#5DDBCF"/>
<defs>
<filter id="filter0_d_960_2536" x="51.5485" y="7.49429" width="197.759" height="34.8908" filterUnits="userSpaceOnUse" color-interpolation-filters="sRGB">
<feFlood flood-opacity="0" result="BackgroundImageFix"/>
<feColorMatrix in="SourceAlpha" type="matrix" values="0 0 0 0 0 0 0 0 0 0 0 0 0 0 0 0 0 0 127 0" result="hardAlpha"/>
<feOffset dy="2.30571"/>
<feGaussianBlur stdDeviation="2.30571"/>
<feComposite in2="hardAlpha" operator="out"/>
<feColorMatrix type="matrix" values="0 0 0 0 0 0 0 0 0 0 0 0 0 0 0 0 0 0 0.25 0"/>
<feBlend mode="normal" in2="BackgroundImageFix" result="effect1_dropShadow_960_2536"/>
<feBlend mode="normal" in="SourceGraphic" in2="effect1_dropShadow_960_2536" result="shape"/>
</filter>
</defs>
</svg>
