<svg width="616" height="70" viewBox="0 0 616 70" fill="none" xmlns="http://www.w3.org/2000/svg">
<g filter="url(#filter0_f_960_2748)">
<path d="M573.467 132.918C573.467 121.144 566.609 109.485 553.284 98.6064C539.958 87.7284 520.427 77.8443 495.805 69.5186C471.183 61.1929 441.952 54.5886 409.782 50.0828C377.612 45.5769 343.132 43.2578 308.312 43.2578C273.491 43.2578 239.011 45.5769 206.841 50.0828C174.671 54.5886 145.44 61.1929 120.818 69.5186C96.1961 77.8443 76.6649 87.7284 63.3395 98.6065C50.0142 109.485 43.1558 121.144 43.1558 132.918L308.312 132.918H573.467Z" fill="url(#paint0_linear_960_2748)" fill-opacity="0.3"/>
</g>
<defs>
<filter id="filter0_f_960_2748" x="0.662846" y="0.764896" width="615.297" height="174.646" filterUnits="userSpaceOnUse" color-interpolation-filters="sRGB">
<feFlood flood-opacity="0" result="BackgroundImageFix"/>
<feBlend mode="normal" in="SourceGraphic" in2="BackgroundImageFix" result="shape"/>
<feGaussianBlur stdDeviation="21.2465" result="effect1_foregroundBlur_960_2748"/>
</filter>
<linearGradient id="paint0_linear_960_2748" x1="308.312" y1="43.2578" x2="308.312" y2="222.578" gradientUnits="userSpaceOnUse">
<stop stop-color="#0D423E"/>
<stop offset="1" stop-color="#5DDBCF"/>
</linearGradient>
</defs>
</svg>
